<svg width="32" height="32" viewBox="0 0 32 32" fill="none" xmlns="http://www.w3.org/2000/svg">
  <defs>
    <linearGradient id="logoGradient" x1="0%" y1="0%" x2="100%" y2="100%">
      <stop offset="0%" style="stop-color:#00ff88;stop-opacity:1" />
      <stop offset="100%" style="stop-color:#00ffff;stop-opacity:1" />
    </linearGradient>
  </defs>
  
  <!-- Background circle -->
  <circle cx="16" cy="16" r="15" fill="rgba(0, 0, 0, 0.9)" stroke="url(#logoGradient)" stroke-width="2"/>
  
  <!-- Ghost shape -->
  <path d="M16 8C12 8 9 11 9 15C9 19 9 22 9 24L11 22L13 24L15 22L17 24L19 22L21 24L23 22C23 22 23 19 23 15C23 11 20 8 16 8Z" 
        fill="url(#logoGradient)" opacity="0.9"/>
  
  <!-- Ghost eyes -->
  <circle cx="13" cy="14" r="1.5" fill="rgba(0, 0, 0, 0.8)"/>
  <circle cx="19" cy="14" r="1.5" fill="rgba(0, 0, 0, 0.8)"/>
  
  <!-- Pen/Writing symbol -->
  <path d="M20 10L24 6L22 4L18 8L20 10Z" fill="url(#logoGradient)" opacity="0.7"/>
</svg>
